<?xml version="1.0" encoding="utf-8"?>
<!-- Generator: Adobe Illustrator 19.1.0, SVG Export Plug-In . SVG Version: 6.00 Build 0)  -->
<svg version="1.1" id="Layer_1" xmlns="http://www.w3.org/2000/svg" xmlns:xlink="http://www.w3.org/1999/xlink" x="0px" y="0px"
	 viewBox="0 0 217.8 100" style="enable-background:new 0 0 217.8 100;" xml:space="preserve">
<style type="text/css">
	.st0{fill:#FFFFFF;}
</style>
<g>
	<path class="st0" d="M60.5,48.5C56.2,61.4,45.9,68.7,32,68.7c-17.3,0-30.9-13.8-30.9-31.5c0-17.4,13.6-31.7,30.3-31.7
		C47,5.5,62,18.3,61.9,39.8H11.2C12.5,52.3,22.1,59.7,32,59.7c8.5,0,14.6-4.1,17.9-11.1H60.5z M50.9,30.9
		C48.4,21,40.2,14.5,31.4,14.5c-8.3,0-17.1,6.1-19.7,16.4H50.9z"/>
	<path class="st0" d="M96.9,68.7c-8.7,0-16.2-4.7-20.5-10.5v35.9h-10V7H76v9.6C80.2,10.5,88,5.5,96.9,5.5C114.2,5.5,127,19.6,127,37
		C127,54.5,114.2,68.7,96.9,68.7 M96.9,14.6c-11.1,0-20.5,10.1-20.5,22.4c0,12.4,9.4,22.6,20.5,22.6c11.2,0,20.1-10.2,20.1-22.6
		C117,24.7,108.1,14.6,96.9,14.6"/>
	<rect x="131.3" y="7" class="st0" width="10" height="60.3"/>
	<path class="st0" d="M145.7,37.2c0-17.6,14.3-31.7,32.4-31.7c18.1,0,32.4,14.2,32.4,31.7c0,17.6-14.4,31.5-32.4,31.5
		C160.1,68.7,145.7,54.8,145.7,37.2 M180.8,15.1c-16.5-1.4-25.6,11.1-25.6,25.7c0,14.6,12,26.5,26.9,26.5c5.8,0,11.2-1.8,15.5-4.9
		l-3.7-9.5c3.9-4,6.1-9.6,6.1-15.7C199.9,25.1,191.5,16.1,180.8,15.1"/>
	<polygon class="st0" points="172.1,43.3 201.5,67.2 217.1,67.2 188.5,43.3 	"/>
</g>
</svg>
